<mxfile host="app.diagrams.net" modified="2021-09-25T15:27:59.318Z" agent="5.0 (X11; Linux x86_64) AppleWebKit/537.36 (KHTML, like Gecko) Chrome/91.0.4472.77 Safari/537.36" etag="-1EG_UV724BJqoxPzhyk" version="15.3.2" type="github">
  <diagram id="lbbrJv7T7nkj-3HFejnw" name="Page-1">
    <mxGraphModel dx="6998" dy="3749" grid="1" gridSize="10" guides="1" tooltips="1" connect="1" arrows="1" fold="1" page="1" pageScale="1" pageWidth="827" pageHeight="1169" math="0" shadow="0">
      <root>
        <mxCell id="0" />
        <mxCell id="1" parent="0" />
        <mxCell id="wd2FR5dUWBUYe5kDKCp2-1" style="edgeStyle=orthogonalEdgeStyle;rounded=0;orthogonalLoop=1;jettySize=auto;html=1;entryX=0;entryY=0.5;entryDx=0;entryDy=0;" edge="1" parent="1" source="wd2FR5dUWBUYe5kDKCp2-6" target="wd2FR5dUWBUYe5kDKCp2-71">
          <mxGeometry relative="1" as="geometry">
            <mxPoint x="490" y="270" as="targetPoint" />
          </mxGeometry>
        </mxCell>
        <mxCell id="wd2FR5dUWBUYe5kDKCp2-2" style="edgeStyle=orthogonalEdgeStyle;rounded=0;orthogonalLoop=1;jettySize=auto;html=1;entryX=0;entryY=0.5;entryDx=0;entryDy=0;" edge="1" parent="1" source="wd2FR5dUWBUYe5kDKCp2-6" target="wd2FR5dUWBUYe5kDKCp2-67">
          <mxGeometry relative="1" as="geometry" />
        </mxCell>
        <mxCell id="wd2FR5dUWBUYe5kDKCp2-3" value="Do" style="edgeStyle=orthogonalEdgeStyle;rounded=0;orthogonalLoop=1;jettySize=auto;html=1;entryX=0;entryY=0.5;entryDx=0;entryDy=0;" edge="1" parent="1" source="wd2FR5dUWBUYe5kDKCp2-6" target="wd2FR5dUWBUYe5kDKCp2-72">
          <mxGeometry x="-0.6744" relative="1" as="geometry">
            <mxPoint as="offset" />
          </mxGeometry>
        </mxCell>
        <mxCell id="wd2FR5dUWBUYe5kDKCp2-4" value="Is" style="edgeStyle=orthogonalEdgeStyle;rounded=0;orthogonalLoop=1;jettySize=auto;html=1;" edge="1" parent="1" source="wd2FR5dUWBUYe5kDKCp2-6" target="wd2FR5dUWBUYe5kDKCp2-54">
          <mxGeometry relative="1" as="geometry" />
        </mxCell>
        <mxCell id="wd2FR5dUWBUYe5kDKCp2-5" style="edgeStyle=orthogonalEdgeStyle;rounded=1;orthogonalLoop=1;jettySize=auto;html=1;entryX=0.5;entryY=1;entryDx=0;entryDy=0;" edge="1" parent="1" source="wd2FR5dUWBUYe5kDKCp2-6" target="wd2FR5dUWBUYe5kDKCp2-73">
          <mxGeometry relative="1" as="geometry" />
        </mxCell>
        <mxCell id="wd2FR5dUWBUYe5kDKCp2-6" value="Application Context" style="rounded=1;whiteSpace=wrap;html=1;fillColor=#f8cecc;strokeColor=#b85450;gradientColor=#ea6b66;" vertex="1" parent="1">
          <mxGeometry x="255" y="220" width="120" height="60" as="geometry" />
        </mxCell>
        <mxCell id="wd2FR5dUWBUYe5kDKCp2-7" style="edgeStyle=orthogonalEdgeStyle;rounded=0;orthogonalLoop=1;jettySize=auto;html=1;entryX=0;entryY=0.5;entryDx=0;entryDy=0;" edge="1" parent="1" source="wd2FR5dUWBUYe5kDKCp2-11" target="wd2FR5dUWBUYe5kDKCp2-62">
          <mxGeometry relative="1" as="geometry" />
        </mxCell>
        <mxCell id="wd2FR5dUWBUYe5kDKCp2-8" style="edgeStyle=orthogonalEdgeStyle;rounded=0;orthogonalLoop=1;jettySize=auto;html=1;" edge="1" parent="1" source="wd2FR5dUWBUYe5kDKCp2-11" target="wd2FR5dUWBUYe5kDKCp2-13">
          <mxGeometry relative="1" as="geometry" />
        </mxCell>
        <mxCell id="wd2FR5dUWBUYe5kDKCp2-9" value="" style="edgeStyle=orthogonalEdgeStyle;rounded=1;orthogonalLoop=1;jettySize=auto;html=1;" edge="1" parent="1" source="wd2FR5dUWBUYe5kDKCp2-11">
          <mxGeometry relative="1" as="geometry">
            <mxPoint x="-755" y="160" as="targetPoint" />
          </mxGeometry>
        </mxCell>
        <mxCell id="wd2FR5dUWBUYe5kDKCp2-10" value="" style="edgeStyle=orthogonalEdgeStyle;rounded=1;orthogonalLoop=1;jettySize=auto;html=1;" edge="1" parent="1" source="wd2FR5dUWBUYe5kDKCp2-11" target="wd2FR5dUWBUYe5kDKCp2-115">
          <mxGeometry relative="1" as="geometry" />
        </mxCell>
        <mxCell id="wd2FR5dUWBUYe5kDKCp2-11" value="Container" style="rounded=1;whiteSpace=wrap;html=1;fillColor=#fff2cc;strokeColor=#d6b656;gradientColor=#ffd966;" vertex="1" parent="1">
          <mxGeometry x="-815" y="220" width="120" height="60" as="geometry" />
        </mxCell>
        <mxCell id="wd2FR5dUWBUYe5kDKCp2-12" style="edgeStyle=orthogonalEdgeStyle;rounded=0;orthogonalLoop=1;jettySize=auto;html=1;entryX=0;entryY=0.5;entryDx=0;entryDy=0;" edge="1" parent="1" source="wd2FR5dUWBUYe5kDKCp2-62" target="wd2FR5dUWBUYe5kDKCp2-6">
          <mxGeometry relative="1" as="geometry" />
        </mxCell>
        <mxCell id="wd2FR5dUWBUYe5kDKCp2-13" value="Lifecycle" style="swimlane;gradientColor=#ea6b66;fillColor=#f8cecc;strokeColor=#b85450;" vertex="1" parent="1">
          <mxGeometry x="-1397.5" y="430" width="1285" height="712" as="geometry" />
        </mxCell>
        <mxCell id="wd2FR5dUWBUYe5kDKCp2-14" style="edgeStyle=orthogonalEdgeStyle;rounded=1;orthogonalLoop=1;jettySize=auto;html=1;entryX=0;entryY=0.5;entryDx=0;entryDy=0;" edge="1" parent="wd2FR5dUWBUYe5kDKCp2-13" source="wd2FR5dUWBUYe5kDKCp2-15" target="wd2FR5dUWBUYe5kDKCp2-17">
          <mxGeometry relative="1" as="geometry" />
        </mxCell>
        <mxCell id="wd2FR5dUWBUYe5kDKCp2-15" value="Application is started" style="ellipse;whiteSpace=wrap;html=1;aspect=fixed;" vertex="1" parent="wd2FR5dUWBUYe5kDKCp2-13">
          <mxGeometry x="470" y="30" width="80" height="80" as="geometry" />
        </mxCell>
        <mxCell id="wd2FR5dUWBUYe5kDKCp2-16" style="edgeStyle=orthogonalEdgeStyle;rounded=1;orthogonalLoop=1;jettySize=auto;html=1;entryX=0;entryY=0.5;entryDx=0;entryDy=0;" edge="1" parent="wd2FR5dUWBUYe5kDKCp2-13" source="wd2FR5dUWBUYe5kDKCp2-17" target="wd2FR5dUWBUYe5kDKCp2-19">
          <mxGeometry relative="1" as="geometry" />
        </mxCell>
        <mxCell id="wd2FR5dUWBUYe5kDKCp2-17" value="Spring Container is created" style="ellipse;whiteSpace=wrap;html=1;aspect=fixed;fillColor=#d5e8d4;strokeColor=#82b366;" vertex="1" parent="wd2FR5dUWBUYe5kDKCp2-13">
          <mxGeometry x="620" y="30" width="80" height="80" as="geometry" />
        </mxCell>
        <mxCell id="wd2FR5dUWBUYe5kDKCp2-18" value="" style="edgeStyle=orthogonalEdgeStyle;rounded=1;orthogonalLoop=1;jettySize=auto;html=1;" edge="1" parent="wd2FR5dUWBUYe5kDKCp2-13" source="wd2FR5dUWBUYe5kDKCp2-19" target="wd2FR5dUWBUYe5kDKCp2-21">
          <mxGeometry relative="1" as="geometry" />
        </mxCell>
        <mxCell id="wd2FR5dUWBUYe5kDKCp2-19" value="Container reads configuration" style="ellipse;whiteSpace=wrap;html=1;aspect=fixed;fillColor=#d5e8d4;strokeColor=#82b366;" vertex="1" parent="wd2FR5dUWBUYe5kDKCp2-13">
          <mxGeometry x="880" y="60" width="80" height="80" as="geometry" />
        </mxCell>
        <mxCell id="wd2FR5dUWBUYe5kDKCp2-20" value="" style="edgeStyle=orthogonalEdgeStyle;rounded=1;orthogonalLoop=1;jettySize=auto;html=1;" edge="1" parent="wd2FR5dUWBUYe5kDKCp2-13" source="wd2FR5dUWBUYe5kDKCp2-21" target="wd2FR5dUWBUYe5kDKCp2-24">
          <mxGeometry relative="1" as="geometry" />
        </mxCell>
        <mxCell id="wd2FR5dUWBUYe5kDKCp2-21" value="Beans definitions are created from configuration" style="ellipse;whiteSpace=wrap;html=1;aspect=fixed;fillColor=#d5e8d4;strokeColor=#82b366;" vertex="1" parent="wd2FR5dUWBUYe5kDKCp2-13">
          <mxGeometry x="940" y="180" width="80" height="80" as="geometry" />
        </mxCell>
        <mxCell id="wd2FR5dUWBUYe5kDKCp2-22" value="" style="edgeStyle=orthogonalEdgeStyle;rounded=1;orthogonalLoop=1;jettySize=auto;html=1;" edge="1" parent="wd2FR5dUWBUYe5kDKCp2-13" source="wd2FR5dUWBUYe5kDKCp2-24">
          <mxGeometry relative="1" as="geometry">
            <mxPoint x="770" y="520" as="targetPoint" />
            <Array as="points">
              <mxPoint x="850" y="360" />
              <mxPoint x="850" y="520" />
            </Array>
          </mxGeometry>
        </mxCell>
        <mxCell id="wd2FR5dUWBUYe5kDKCp2-23" value="" style="edgeStyle=orthogonalEdgeStyle;rounded=0;orthogonalLoop=1;jettySize=auto;html=1;" edge="1" parent="wd2FR5dUWBUYe5kDKCp2-13" source="wd2FR5dUWBUYe5kDKCp2-24" target="wd2FR5dUWBUYe5kDKCp2-51">
          <mxGeometry relative="1" as="geometry" />
        </mxCell>
        <mxCell id="wd2FR5dUWBUYe5kDKCp2-24" value="BeanFactory&lt;br&gt;PostProcesser are processing bean definitions" style="ellipse;whiteSpace=wrap;html=1;aspect=fixed;fillColor=#d5e8d4;strokeColor=#82b366;" vertex="1" parent="wd2FR5dUWBUYe5kDKCp2-13">
          <mxGeometry x="930" y="310" width="100" height="100" as="geometry" />
        </mxCell>
        <mxCell id="wd2FR5dUWBUYe5kDKCp2-25" value="Destruction callbacks are invoked" style="ellipse;whiteSpace=wrap;html=1;aspect=fixed;fillColor=#f8cecc;strokeColor=#b85450;" vertex="1" parent="wd2FR5dUWBUYe5kDKCp2-13">
          <mxGeometry x="228.5" y="30" width="80" height="80" as="geometry" />
        </mxCell>
        <mxCell id="wd2FR5dUWBUYe5kDKCp2-26" value="" style="edgeStyle=orthogonalEdgeStyle;rounded=1;orthogonalLoop=1;jettySize=auto;html=1;" edge="1" parent="wd2FR5dUWBUYe5kDKCp2-13" source="wd2FR5dUWBUYe5kDKCp2-27" target="wd2FR5dUWBUYe5kDKCp2-25">
          <mxGeometry relative="1" as="geometry" />
        </mxCell>
        <mxCell id="wd2FR5dUWBUYe5kDKCp2-27" value="Spring Context is closed" style="ellipse;whiteSpace=wrap;html=1;aspect=fixed;fillColor=#d5e8d4;strokeColor=#82b366;" vertex="1" parent="wd2FR5dUWBUYe5kDKCp2-13">
          <mxGeometry x="68.5" y="40" width="80" height="80" as="geometry" />
        </mxCell>
        <mxCell id="wd2FR5dUWBUYe5kDKCp2-28" value="Application runs" style="ellipse;whiteSpace=wrap;html=1;aspect=fixed;fillColor=#d5e8d4;strokeColor=#82b366;" vertex="1" parent="wd2FR5dUWBUYe5kDKCp2-13">
          <mxGeometry x="38.5" y="330" width="80" height="80" as="geometry" />
        </mxCell>
        <mxCell id="wd2FR5dUWBUYe5kDKCp2-29" value="Application get shutdown" style="ellipse;whiteSpace=wrap;html=1;aspect=fixed;fillColor=#d5e8d4;strokeColor=#82b366;" vertex="1" parent="wd2FR5dUWBUYe5kDKCp2-13">
          <mxGeometry x="21.5" y="160" width="80" height="80" as="geometry" />
        </mxCell>
        <mxCell id="wd2FR5dUWBUYe5kDKCp2-30" value="" style="edgeStyle=orthogonalEdgeStyle;rounded=1;orthogonalLoop=1;jettySize=auto;html=1;" edge="1" parent="wd2FR5dUWBUYe5kDKCp2-13" source="wd2FR5dUWBUYe5kDKCp2-28" target="wd2FR5dUWBUYe5kDKCp2-29">
          <mxGeometry relative="1" as="geometry" />
        </mxCell>
        <mxCell id="wd2FR5dUWBUYe5kDKCp2-31" value="" style="edgeStyle=orthogonalEdgeStyle;rounded=1;orthogonalLoop=1;jettySize=auto;html=1;" edge="1" parent="wd2FR5dUWBUYe5kDKCp2-13" source="wd2FR5dUWBUYe5kDKCp2-29" target="wd2FR5dUWBUYe5kDKCp2-27">
          <mxGeometry relative="1" as="geometry" />
        </mxCell>
        <mxCell id="wd2FR5dUWBUYe5kDKCp2-32" value="Beans Lifcycle" style="swimlane;startSize=23;" vertex="1" parent="wd2FR5dUWBUYe5kDKCp2-13">
          <mxGeometry x="160" y="260" width="609.5" height="452" as="geometry" />
        </mxCell>
        <mxCell id="wd2FR5dUWBUYe5kDKCp2-33" value="Intances of Sping Beans are created" style="ellipse;whiteSpace=wrap;html=1;aspect=fixed;" vertex="1" parent="wd2FR5dUWBUYe5kDKCp2-32">
          <mxGeometry x="524" y="110" width="80" height="80" as="geometry" />
        </mxCell>
        <mxCell id="wd2FR5dUWBUYe5kDKCp2-34" value="Spring Beans are configured and assembled - resolve property values and inject dependency" style="ellipse;whiteSpace=wrap;html=1;aspect=fixed;fillColor=#d5e8d4;strokeColor=#82b366;" vertex="1" parent="wd2FR5dUWBUYe5kDKCp2-32">
          <mxGeometry x="320" y="20" width="130" height="130" as="geometry" />
        </mxCell>
        <mxCell id="wd2FR5dUWBUYe5kDKCp2-35" value="" style="edgeStyle=orthogonalEdgeStyle;rounded=1;orthogonalLoop=1;jettySize=auto;html=1;" edge="1" parent="wd2FR5dUWBUYe5kDKCp2-32" source="wd2FR5dUWBUYe5kDKCp2-33" target="wd2FR5dUWBUYe5kDKCp2-34">
          <mxGeometry relative="1" as="geometry" />
        </mxCell>
        <mxCell id="wd2FR5dUWBUYe5kDKCp2-36" value="" style="edgeStyle=orthogonalEdgeStyle;rounded=1;orthogonalLoop=1;jettySize=auto;html=1;entryX=0.5;entryY=0;entryDx=0;entryDy=0;" edge="1" parent="wd2FR5dUWBUYe5kDKCp2-32" source="wd2FR5dUWBUYe5kDKCp2-37" target="wd2FR5dUWBUYe5kDKCp2-40">
          <mxGeometry relative="1" as="geometry" />
        </mxCell>
        <mxCell id="wd2FR5dUWBUYe5kDKCp2-37" value="BeanPost&lt;br&gt;Processors::&lt;br&gt;postProcessBefore&lt;br&gt;Initialization gets called" style="ellipse;whiteSpace=wrap;html=1;aspect=fixed;fillColor=#d5e8d4;strokeColor=#82b366;" vertex="1" parent="wd2FR5dUWBUYe5kDKCp2-32">
          <mxGeometry x="130" y="20" width="121" height="121" as="geometry" />
        </mxCell>
        <mxCell id="wd2FR5dUWBUYe5kDKCp2-38" style="edgeStyle=orthogonalEdgeStyle;rounded=1;orthogonalLoop=1;jettySize=auto;html=1;entryX=1;entryY=0.5;entryDx=0;entryDy=0;" edge="1" parent="wd2FR5dUWBUYe5kDKCp2-32" source="wd2FR5dUWBUYe5kDKCp2-34" target="wd2FR5dUWBUYe5kDKCp2-37">
          <mxGeometry relative="1" as="geometry" />
        </mxCell>
        <mxCell id="wd2FR5dUWBUYe5kDKCp2-39" value="" style="edgeStyle=orthogonalEdgeStyle;rounded=1;orthogonalLoop=1;jettySize=auto;html=1;" edge="1" parent="wd2FR5dUWBUYe5kDKCp2-32" source="wd2FR5dUWBUYe5kDKCp2-40" target="wd2FR5dUWBUYe5kDKCp2-42">
          <mxGeometry relative="1" as="geometry" />
        </mxCell>
        <mxCell id="wd2FR5dUWBUYe5kDKCp2-40" value="@PostConstruct methods gets called" style="ellipse;whiteSpace=wrap;html=1;aspect=fixed;fillColor=#d5e8d4;strokeColor=#82b366;" vertex="1" parent="wd2FR5dUWBUYe5kDKCp2-32">
          <mxGeometry y="130" width="121" height="121" as="geometry" />
        </mxCell>
        <mxCell id="wd2FR5dUWBUYe5kDKCp2-41" value="" style="edgeStyle=orthogonalEdgeStyle;rounded=1;orthogonalLoop=1;jettySize=auto;html=1;" edge="1" parent="wd2FR5dUWBUYe5kDKCp2-32" source="wd2FR5dUWBUYe5kDKCp2-42" target="wd2FR5dUWBUYe5kDKCp2-44">
          <mxGeometry relative="1" as="geometry" />
        </mxCell>
        <mxCell id="wd2FR5dUWBUYe5kDKCp2-42" value="InitializingBean::&lt;br&gt;afterPropertiesSet method gets called" style="ellipse;whiteSpace=wrap;html=1;aspect=fixed;fillColor=#d5e8d4;strokeColor=#82b366;" vertex="1" parent="wd2FR5dUWBUYe5kDKCp2-32">
          <mxGeometry x="9" y="310" width="121" height="121" as="geometry" />
        </mxCell>
        <mxCell id="wd2FR5dUWBUYe5kDKCp2-43" value="" style="edgeStyle=orthogonalEdgeStyle;rounded=1;orthogonalLoop=1;jettySize=auto;html=1;" edge="1" parent="wd2FR5dUWBUYe5kDKCp2-32" source="wd2FR5dUWBUYe5kDKCp2-44" target="wd2FR5dUWBUYe5kDKCp2-45">
          <mxGeometry relative="1" as="geometry" />
        </mxCell>
        <mxCell id="wd2FR5dUWBUYe5kDKCp2-44" value="@Bean(initMethod) method gets called" style="ellipse;whiteSpace=wrap;html=1;aspect=fixed;fillColor=#d5e8d4;strokeColor=#82b366;" vertex="1" parent="wd2FR5dUWBUYe5kDKCp2-32">
          <mxGeometry x="283" y="331" width="121" height="121" as="geometry" />
        </mxCell>
        <mxCell id="wd2FR5dUWBUYe5kDKCp2-45" value="BeanPostProcessor::&lt;br&gt;postProcessAfterInitilization gets called" style="ellipse;whiteSpace=wrap;html=1;aspect=fixed;fillColor=#fff2cc;strokeColor=#d6b656;" vertex="1" parent="wd2FR5dUWBUYe5kDKCp2-32">
          <mxGeometry x="483" y="260" width="121" height="121" as="geometry" />
        </mxCell>
        <mxCell id="wd2FR5dUWBUYe5kDKCp2-46" value="" style="endArrow=classic;html=1;exitX=0;exitY=0.5;exitDx=0;exitDy=0;entryX=0.5;entryY=1;entryDx=0;entryDy=0;" edge="1" parent="wd2FR5dUWBUYe5kDKCp2-13" source="wd2FR5dUWBUYe5kDKCp2-32" target="wd2FR5dUWBUYe5kDKCp2-28">
          <mxGeometry width="50" height="50" relative="1" as="geometry">
            <mxPoint x="40" y="540" as="sourcePoint" />
            <mxPoint x="90" y="490" as="targetPoint" />
            <Array as="points">
              <mxPoint x="79" y="486" />
            </Array>
          </mxGeometry>
        </mxCell>
        <mxCell id="wd2FR5dUWBUYe5kDKCp2-47" value="Is a Spring Bean" style="whiteSpace=wrap;html=1;" vertex="1" parent="wd2FR5dUWBUYe5kDKCp2-13">
          <mxGeometry x="900" y="456" width="160" height="60" as="geometry" />
        </mxCell>
        <mxCell id="wd2FR5dUWBUYe5kDKCp2-48" value="" style="edgeStyle=orthogonalEdgeStyle;rounded=0;orthogonalLoop=1;jettySize=auto;html=1;" edge="1" parent="wd2FR5dUWBUYe5kDKCp2-13" source="wd2FR5dUWBUYe5kDKCp2-24" target="wd2FR5dUWBUYe5kDKCp2-47">
          <mxGeometry relative="1" as="geometry" />
        </mxCell>
        <mxCell id="wd2FR5dUWBUYe5kDKCp2-49" value="Create before any Spring Bean -&amp;gt;&amp;nbsp; needs to be registered from static method&amp;nbsp;&amp;nbsp;&lt;span&gt;	&lt;/span&gt;" style="whiteSpace=wrap;html=1;" vertex="1" parent="wd2FR5dUWBUYe5kDKCp2-13">
          <mxGeometry x="900" y="516" width="160" height="74" as="geometry" />
        </mxCell>
        <mxCell id="wd2FR5dUWBUYe5kDKCp2-50" value="" style="edgeStyle=orthogonalEdgeStyle;rounded=0;orthogonalLoop=1;jettySize=auto;html=1;" edge="1" parent="wd2FR5dUWBUYe5kDKCp2-13" source="wd2FR5dUWBUYe5kDKCp2-51" target="wd2FR5dUWBUYe5kDKCp2-52">
          <mxGeometry relative="1" as="geometry" />
        </mxCell>
        <mxCell id="wd2FR5dUWBUYe5kDKCp2-51" value="PropertySources&lt;br&gt;PlaceholderConfigurer" style="whiteSpace=wrap;html=1;" vertex="1" parent="wd2FR5dUWBUYe5kDKCp2-13">
          <mxGeometry x="1100" y="330" width="120" height="60" as="geometry" />
        </mxCell>
        <mxCell id="wd2FR5dUWBUYe5kDKCp2-52" value="Used to resolve properties place holder (@Value())" style="whiteSpace=wrap;html=1;" vertex="1" parent="wd2FR5dUWBUYe5kDKCp2-13">
          <mxGeometry x="1100" y="456" width="120" height="60" as="geometry" />
        </mxCell>
        <mxCell id="wd2FR5dUWBUYe5kDKCp2-53" value="" style="group;gradientColor=#d5739d;fillColor=#e6d0de;strokeColor=#996185;" vertex="1" connectable="0" parent="1">
          <mxGeometry y="580" width="630" height="185" as="geometry" />
        </mxCell>
        <mxCell id="wd2FR5dUWBUYe5kDKCp2-54" value="" style="rounded=1;whiteSpace=wrap;html=1;" vertex="1" parent="wd2FR5dUWBUYe5kDKCp2-53">
          <mxGeometry width="630" height="185" as="geometry" />
        </mxCell>
        <mxCell id="wd2FR5dUWBUYe5kDKCp2-55" value="AnnotationConfigApplicationContext" style="whiteSpace=wrap;html=1;rounded=1;" vertex="1" parent="wd2FR5dUWBUYe5kDKCp2-53">
          <mxGeometry x="420" y="105" width="200" height="60" as="geometry" />
        </mxCell>
        <mxCell id="wd2FR5dUWBUYe5kDKCp2-56" value="AnnotationConfigWebApplicationContext" style="whiteSpace=wrap;html=1;rounded=1;" vertex="1" parent="wd2FR5dUWBUYe5kDKCp2-53">
          <mxGeometry x="290" y="30" width="220" height="60" as="geometry" />
        </mxCell>
        <mxCell id="wd2FR5dUWBUYe5kDKCp2-57" value="ClassPathXmlApplicationContext" style="whiteSpace=wrap;html=1;rounded=1;" vertex="1" parent="wd2FR5dUWBUYe5kDKCp2-53">
          <mxGeometry x="80" y="30" width="200" height="60" as="geometry" />
        </mxCell>
        <mxCell id="wd2FR5dUWBUYe5kDKCp2-58" value="FileSystemXmlApplicationContext" style="whiteSpace=wrap;html=1;rounded=1;" vertex="1" parent="wd2FR5dUWBUYe5kDKCp2-53">
          <mxGeometry x="220" y="105" width="180" height="60" as="geometry" />
        </mxCell>
        <mxCell id="wd2FR5dUWBUYe5kDKCp2-59" value="XmlWebApplicationContext" style="whiteSpace=wrap;html=1;rounded=1;" vertex="1" parent="wd2FR5dUWBUYe5kDKCp2-53">
          <mxGeometry x="30" y="105" width="160" height="60" as="geometry" />
        </mxCell>
        <mxCell id="wd2FR5dUWBUYe5kDKCp2-60" value="" style="group" vertex="1" connectable="0" parent="1">
          <mxGeometry x="-160" y="160" width="120" height="180" as="geometry" />
        </mxCell>
        <mxCell id="wd2FR5dUWBUYe5kDKCp2-61" value="Execution Environment" style="rounded=0;whiteSpace=wrap;html=1;" vertex="1" parent="wd2FR5dUWBUYe5kDKCp2-60">
          <mxGeometry width="120" height="70" as="geometry" />
        </mxCell>
        <mxCell id="wd2FR5dUWBUYe5kDKCp2-62" value="Manages Lifecycle of Beans" style="rounded=0;whiteSpace=wrap;html=1;" vertex="1" parent="wd2FR5dUWBUYe5kDKCp2-60">
          <mxGeometry y="60" width="120" height="60" as="geometry" />
        </mxCell>
        <mxCell id="wd2FR5dUWBUYe5kDKCp2-63" value="Provides additional services" style="rounded=0;whiteSpace=wrap;html=1;" vertex="1" parent="wd2FR5dUWBUYe5kDKCp2-60">
          <mxGeometry y="120" width="120" height="60" as="geometry" />
        </mxCell>
        <mxCell id="wd2FR5dUWBUYe5kDKCp2-64" value="" style="group" vertex="1" connectable="0" parent="1">
          <mxGeometry x="670" y="40" width="120" height="480" as="geometry" />
        </mxCell>
        <mxCell id="wd2FR5dUWBUYe5kDKCp2-65" value="Initiates Beans" style="rounded=0;whiteSpace=wrap;html=1;" vertex="1" parent="wd2FR5dUWBUYe5kDKCp2-64">
          <mxGeometry y="60" width="120" height="60" as="geometry" />
        </mxCell>
        <mxCell id="wd2FR5dUWBUYe5kDKCp2-66" value="Configures Beans" style="rounded=0;whiteSpace=wrap;html=1;" vertex="1" parent="wd2FR5dUWBUYe5kDKCp2-64">
          <mxGeometry y="120" width="120" height="60" as="geometry" />
        </mxCell>
        <mxCell id="wd2FR5dUWBUYe5kDKCp2-67" value="Assemblies Beans" style="rounded=0;whiteSpace=wrap;html=1;" vertex="1" parent="wd2FR5dUWBUYe5kDKCp2-64">
          <mxGeometry y="180" width="120" height="60" as="geometry" />
        </mxCell>
        <mxCell id="wd2FR5dUWBUYe5kDKCp2-68" value="Manages Beans Lifecycle" style="rounded=0;whiteSpace=wrap;html=1;" vertex="1" parent="wd2FR5dUWBUYe5kDKCp2-64">
          <mxGeometry y="240" width="120" height="60" as="geometry" />
        </mxCell>
        <mxCell id="wd2FR5dUWBUYe5kDKCp2-69" value="Is a Bean Factory" style="rounded=0;whiteSpace=wrap;html=1;" vertex="1" parent="wd2FR5dUWBUYe5kDKCp2-64">
          <mxGeometry y="300" width="120" height="60" as="geometry" />
        </mxCell>
        <mxCell id="wd2FR5dUWBUYe5kDKCp2-70" value="Is a Resource Loader" style="rounded=0;whiteSpace=wrap;html=1;" vertex="1" parent="wd2FR5dUWBUYe5kDKCp2-64">
          <mxGeometry y="360" width="120" height="60" as="geometry" />
        </mxCell>
        <mxCell id="wd2FR5dUWBUYe5kDKCp2-71" value="Has ability to push events to registered event listeners" style="rounded=0;whiteSpace=wrap;html=1;" vertex="1" parent="wd2FR5dUWBUYe5kDKCp2-64">
          <mxGeometry width="120" height="60" as="geometry" />
        </mxCell>
        <mxCell id="wd2FR5dUWBUYe5kDKCp2-72" value="Exposes Envirotment which allows to resolve properties" style="rounded=0;whiteSpace=wrap;html=1;" vertex="1" parent="wd2FR5dUWBUYe5kDKCp2-64">
          <mxGeometry y="420" width="120" height="60" as="geometry" />
        </mxCell>
        <mxCell id="wd2FR5dUWBUYe5kDKCp2-73" value="Testing" style="swimlane;gradientColor=#d5739d;fillColor=#e6d0de;strokeColor=#996185;" vertex="1" parent="1">
          <mxGeometry x="-50" y="-540" width="730" height="490" as="geometry" />
        </mxCell>
        <mxCell id="wd2FR5dUWBUYe5kDKCp2-74" value="Add Spring Runner" style="rounded=1;whiteSpace=wrap;html=1;" vertex="1" parent="wd2FR5dUWBUYe5kDKCp2-73">
          <mxGeometry x="30" y="70" width="120" height="60" as="geometry" />
        </mxCell>
        <mxCell id="wd2FR5dUWBUYe5kDKCp2-75" value="Add @ContextConfiguration" style="rounded=1;whiteSpace=wrap;html=1;" vertex="1" parent="wd2FR5dUWBUYe5kDKCp2-73">
          <mxGeometry x="30" y="150" width="120" height="60" as="geometry" />
        </mxCell>
        <mxCell id="wd2FR5dUWBUYe5kDKCp2-76" value="Dependency Injection" style="swimlane;gradientColor=#ea6b66;fillColor=#f8cecc;strokeColor=#b85450;" vertex="1" parent="1">
          <mxGeometry x="-1280" y="-485" width="1030" height="645" as="geometry" />
        </mxCell>
        <mxCell id="wd2FR5dUWBUYe5kDKCp2-77" value="" style="edgeStyle=orthogonalEdgeStyle;rounded=1;orthogonalLoop=1;jettySize=auto;html=1;" edge="1" parent="wd2FR5dUWBUYe5kDKCp2-76" source="wd2FR5dUWBUYe5kDKCp2-78" target="wd2FR5dUWBUYe5kDKCp2-80">
          <mxGeometry relative="1" as="geometry" />
        </mxCell>
        <mxCell id="wd2FR5dUWBUYe5kDKCp2-78" value="Create classed annotated with @Component" style="ellipse;whiteSpace=wrap;html=1;" vertex="1" parent="wd2FR5dUWBUYe5kDKCp2-76">
          <mxGeometry x="520" y="40" width="120" height="80" as="geometry" />
        </mxCell>
        <mxCell id="wd2FR5dUWBUYe5kDKCp2-79" value="" style="edgeStyle=orthogonalEdgeStyle;rounded=1;orthogonalLoop=1;jettySize=auto;html=1;" edge="1" parent="wd2FR5dUWBUYe5kDKCp2-76" source="wd2FR5dUWBUYe5kDKCp2-80" target="wd2FR5dUWBUYe5kDKCp2-82">
          <mxGeometry relative="1" as="geometry" />
        </mxCell>
        <mxCell id="wd2FR5dUWBUYe5kDKCp2-80" value="Define dependencies when required" style="ellipse;whiteSpace=wrap;html=1;fillColor=#d5e8d4;strokeColor=#82b366;" vertex="1" parent="wd2FR5dUWBUYe5kDKCp2-76">
          <mxGeometry x="660" y="40" width="120" height="80" as="geometry" />
        </mxCell>
        <mxCell id="wd2FR5dUWBUYe5kDKCp2-81" value="" style="edgeStyle=orthogonalEdgeStyle;rounded=1;orthogonalLoop=1;jettySize=auto;html=1;entryX=0.5;entryY=0;entryDx=0;entryDy=0;" edge="1" parent="wd2FR5dUWBUYe5kDKCp2-76" source="wd2FR5dUWBUYe5kDKCp2-82" target="wd2FR5dUWBUYe5kDKCp2-85">
          <mxGeometry relative="1" as="geometry">
            <mxPoint x="940" y="240" as="targetPoint" />
          </mxGeometry>
        </mxCell>
        <mxCell id="wd2FR5dUWBUYe5kDKCp2-82" value="Create configuration with ComponentScanning&amp;nbsp;" style="ellipse;whiteSpace=wrap;html=1;fillColor=#d5e8d4;strokeColor=#82b366;" vertex="1" parent="wd2FR5dUWBUYe5kDKCp2-76">
          <mxGeometry x="830" y="60" width="120" height="80" as="geometry" />
        </mxCell>
        <mxCell id="wd2FR5dUWBUYe5kDKCp2-83" value="" style="edgeStyle=orthogonalEdgeStyle;rounded=1;orthogonalLoop=1;jettySize=auto;html=1;" edge="1" parent="wd2FR5dUWBUYe5kDKCp2-76" source="wd2FR5dUWBUYe5kDKCp2-85" target="wd2FR5dUWBUYe5kDKCp2-87">
          <mxGeometry relative="1" as="geometry">
            <Array as="points">
              <mxPoint x="720" y="330" />
            </Array>
          </mxGeometry>
        </mxCell>
        <mxCell id="wd2FR5dUWBUYe5kDKCp2-84" value="" style="edgeStyle=orthogonalEdgeStyle;rounded=1;orthogonalLoop=1;jettySize=auto;html=1;entryX=1;entryY=0.5;entryDx=0;entryDy=0;" edge="1" parent="wd2FR5dUWBUYe5kDKCp2-76" source="wd2FR5dUWBUYe5kDKCp2-85" target="wd2FR5dUWBUYe5kDKCp2-103">
          <mxGeometry relative="1" as="geometry" />
        </mxCell>
        <mxCell id="wd2FR5dUWBUYe5kDKCp2-85" value="Container will scan Classpath in search for classes annotatd with stereotypes" style="ellipse;whiteSpace=wrap;html=1;fillColor=#d5e8d4;strokeColor=#82b366;" vertex="1" parent="wd2FR5dUWBUYe5kDKCp2-76">
          <mxGeometry x="900" y="282.5" width="120" height="80" as="geometry" />
        </mxCell>
        <mxCell id="wd2FR5dUWBUYe5kDKCp2-86" value="Creates beans definitions" style="ellipse;whiteSpace=wrap;html=1;fillColor=#d5e8d4;strokeColor=#82b366;" vertex="1" parent="wd2FR5dUWBUYe5kDKCp2-76">
          <mxGeometry x="430" y="150" width="120" height="80" as="geometry" />
        </mxCell>
        <mxCell id="wd2FR5dUWBUYe5kDKCp2-87" value="Stereotypes are annotations applied to classes to describe role which will be performed by this class" style="whiteSpace=wrap;html=1;strokeColor=#82b366;fillColor=#d5e8d4;" vertex="1" parent="wd2FR5dUWBUYe5kDKCp2-76">
          <mxGeometry x="625" y="160" width="190" height="100" as="geometry" />
        </mxCell>
        <mxCell id="wd2FR5dUWBUYe5kDKCp2-88" value="" style="group" vertex="1" connectable="0" parent="wd2FR5dUWBUYe5kDKCp2-76">
          <mxGeometry x="20" y="410" width="360" height="220" as="geometry" />
        </mxCell>
        <mxCell id="wd2FR5dUWBUYe5kDKCp2-89" value="Scope" style="rounded=1;whiteSpace=wrap;html=1;fillColor=#f8cecc;strokeColor=#b85450;" vertex="1" parent="wd2FR5dUWBUYe5kDKCp2-88">
          <mxGeometry x="120" width="120" height="60" as="geometry" />
        </mxCell>
        <mxCell id="wd2FR5dUWBUYe5kDKCp2-90" value="Singleton" style="rounded=1;whiteSpace=wrap;html=1;fillColor=#dae8fc;strokeColor=#6c8ebf;" vertex="1" parent="wd2FR5dUWBUYe5kDKCp2-88">
          <mxGeometry x="120" y="90" width="120" height="60" as="geometry" />
        </mxCell>
        <mxCell id="wd2FR5dUWBUYe5kDKCp2-91" value="Prototype" style="rounded=1;whiteSpace=wrap;html=1;fillColor=#dae8fc;strokeColor=#6c8ebf;" vertex="1" parent="wd2FR5dUWBUYe5kDKCp2-88">
          <mxGeometry x="240" y="90" width="120" height="60" as="geometry" />
        </mxCell>
        <mxCell id="wd2FR5dUWBUYe5kDKCp2-92" value="Request" style="rounded=1;whiteSpace=wrap;html=1;fillColor=#dae8fc;strokeColor=#6c8ebf;" vertex="1" parent="wd2FR5dUWBUYe5kDKCp2-88">
          <mxGeometry x="120" y="160" width="120" height="60" as="geometry" />
        </mxCell>
        <mxCell id="wd2FR5dUWBUYe5kDKCp2-93" value="Websocket" style="rounded=1;whiteSpace=wrap;html=1;fillColor=#dae8fc;strokeColor=#6c8ebf;" vertex="1" parent="wd2FR5dUWBUYe5kDKCp2-88">
          <mxGeometry x="240" y="160" width="120" height="60" as="geometry" />
        </mxCell>
        <mxCell id="wd2FR5dUWBUYe5kDKCp2-94" value="Application" style="rounded=1;whiteSpace=wrap;html=1;fillColor=#dae8fc;strokeColor=#6c8ebf;" vertex="1" parent="wd2FR5dUWBUYe5kDKCp2-88">
          <mxGeometry y="90" width="120" height="60" as="geometry" />
        </mxCell>
        <mxCell id="wd2FR5dUWBUYe5kDKCp2-95" value="Session" style="rounded=1;whiteSpace=wrap;html=1;fillColor=#dae8fc;strokeColor=#6c8ebf;" vertex="1" parent="wd2FR5dUWBUYe5kDKCp2-88">
          <mxGeometry y="160" width="120" height="60" as="geometry" />
        </mxCell>
        <mxCell id="wd2FR5dUWBUYe5kDKCp2-96" value="" style="edgeStyle=orthogonalEdgeStyle;rounded=1;orthogonalLoop=1;jettySize=auto;html=1;" edge="1" parent="wd2FR5dUWBUYe5kDKCp2-76" source="wd2FR5dUWBUYe5kDKCp2-97" target="wd2FR5dUWBUYe5kDKCp2-100">
          <mxGeometry relative="1" as="geometry" />
        </mxCell>
        <mxCell id="wd2FR5dUWBUYe5kDKCp2-97" value="Instantiate behavior" style="rounded=1;whiteSpace=wrap;html=1;fillColor=#f8cecc;strokeColor=#b85450;" vertex="1" parent="wd2FR5dUWBUYe5kDKCp2-76">
          <mxGeometry x="10" y="40" width="120" height="60" as="geometry" />
        </mxCell>
        <mxCell id="wd2FR5dUWBUYe5kDKCp2-98" value="Lazy" style="rounded=1;whiteSpace=wrap;html=1;fillColor=#dae8fc;strokeColor=#6c8ebf;" vertex="1" parent="wd2FR5dUWBUYe5kDKCp2-76">
          <mxGeometry x="10" y="120" width="120" height="60" as="geometry" />
        </mxCell>
        <mxCell id="wd2FR5dUWBUYe5kDKCp2-99" value="Eager" style="rounded=1;whiteSpace=wrap;html=1;fillColor=#dae8fc;strokeColor=#6c8ebf;" vertex="1" parent="wd2FR5dUWBUYe5kDKCp2-76">
          <mxGeometry x="10" y="180" width="120" height="60" as="geometry" />
        </mxCell>
        <mxCell id="wd2FR5dUWBUYe5kDKCp2-100" value="ComponentScan(lazyInit = true)" style="whiteSpace=wrap;html=1;rounded=1;strokeColor=#b85450;fillColor=#f8cecc;" vertex="1" parent="wd2FR5dUWBUYe5kDKCp2-76">
          <mxGeometry x="210" y="40" width="210" height="60" as="geometry" />
        </mxCell>
        <mxCell id="wd2FR5dUWBUYe5kDKCp2-101" value="@Lazy" style="whiteSpace=wrap;html=1;rounded=1;strokeColor=#b85450;fillColor=#f8cecc;" vertex="1" parent="wd2FR5dUWBUYe5kDKCp2-76">
          <mxGeometry x="210" y="100" width="210" height="60" as="geometry" />
        </mxCell>
        <mxCell id="wd2FR5dUWBUYe5kDKCp2-102" value="" style="group" vertex="1" connectable="0" parent="wd2FR5dUWBUYe5kDKCp2-76">
          <mxGeometry x="440" y="350" width="537" height="270" as="geometry" />
        </mxCell>
        <mxCell id="wd2FR5dUWBUYe5kDKCp2-103" value="" style="ellipse;whiteSpace=wrap;html=1;rounded=0;shadow=0;glass=0;sketch=0;" vertex="1" parent="wd2FR5dUWBUYe5kDKCp2-102">
          <mxGeometry width="537" height="270" as="geometry" />
        </mxCell>
        <mxCell id="wd2FR5dUWBUYe5kDKCp2-104" value="Match exactly by type, if only one found, finish" style="ellipse;whiteSpace=wrap;html=1;fillColor=#d5e8d4;strokeColor=#82b366;" vertex="1" parent="wd2FR5dUWBUYe5kDKCp2-102">
          <mxGeometry x="390" y="120" width="120" height="80" as="geometry" />
        </mxCell>
        <mxCell id="wd2FR5dUWBUYe5kDKCp2-105" value="check for @Primary, inject primary, finish" style="ellipse;whiteSpace=wrap;html=1;fillColor=#d5e8d4;strokeColor=#82b366;" vertex="1" parent="wd2FR5dUWBUYe5kDKCp2-102">
          <mxGeometry x="220" y="160" width="120" height="80" as="geometry" />
        </mxCell>
        <mxCell id="wd2FR5dUWBUYe5kDKCp2-106" value="check for @Qualifier" style="ellipse;whiteSpace=wrap;html=1;fillColor=#d5e8d4;strokeColor=#82b366;" vertex="1" parent="wd2FR5dUWBUYe5kDKCp2-102">
          <mxGeometry x="60" y="140" width="120" height="80" as="geometry" />
        </mxCell>
        <mxCell id="wd2FR5dUWBUYe5kDKCp2-107" value="check by bean name" style="ellipse;whiteSpace=wrap;html=1;fillColor=#d5e8d4;strokeColor=#82b366;" vertex="1" parent="wd2FR5dUWBUYe5kDKCp2-102">
          <mxGeometry x="50" y="40" width="120" height="80" as="geometry" />
        </mxCell>
        <mxCell id="wd2FR5dUWBUYe5kDKCp2-108" value="throw exception&lt;br&gt;" style="ellipse;whiteSpace=wrap;html=1;fillColor=#d5e8d4;strokeColor=#82b366;" vertex="1" parent="wd2FR5dUWBUYe5kDKCp2-102">
          <mxGeometry x="255" y="10" width="120" height="80" as="geometry" />
        </mxCell>
        <mxCell id="wd2FR5dUWBUYe5kDKCp2-109" value="" style="edgeStyle=orthogonalEdgeStyle;rounded=1;orthogonalLoop=1;jettySize=auto;html=1;" edge="1" parent="wd2FR5dUWBUYe5kDKCp2-102" source="wd2FR5dUWBUYe5kDKCp2-104" target="wd2FR5dUWBUYe5kDKCp2-105">
          <mxGeometry relative="1" as="geometry" />
        </mxCell>
        <mxCell id="wd2FR5dUWBUYe5kDKCp2-110" value="" style="edgeStyle=orthogonalEdgeStyle;rounded=1;orthogonalLoop=1;jettySize=auto;html=1;" edge="1" parent="wd2FR5dUWBUYe5kDKCp2-102" source="wd2FR5dUWBUYe5kDKCp2-105" target="wd2FR5dUWBUYe5kDKCp2-106">
          <mxGeometry relative="1" as="geometry" />
        </mxCell>
        <mxCell id="wd2FR5dUWBUYe5kDKCp2-111" value="" style="edgeStyle=orthogonalEdgeStyle;rounded=1;orthogonalLoop=1;jettySize=auto;html=1;" edge="1" parent="wd2FR5dUWBUYe5kDKCp2-102" source="wd2FR5dUWBUYe5kDKCp2-106" target="wd2FR5dUWBUYe5kDKCp2-107">
          <mxGeometry relative="1" as="geometry" />
        </mxCell>
        <mxCell id="wd2FR5dUWBUYe5kDKCp2-112" value="" style="edgeStyle=orthogonalEdgeStyle;rounded=1;orthogonalLoop=1;jettySize=auto;html=1;" edge="1" parent="wd2FR5dUWBUYe5kDKCp2-102" source="wd2FR5dUWBUYe5kDKCp2-107" target="wd2FR5dUWBUYe5kDKCp2-108">
          <mxGeometry relative="1" as="geometry" />
        </mxCell>
        <mxCell id="wd2FR5dUWBUYe5kDKCp2-113" value="" style="edgeStyle=orthogonalEdgeStyle;rounded=1;orthogonalLoop=1;jettySize=auto;html=1;entryX=0.5;entryY=1;entryDx=0;entryDy=0;exitX=0;exitY=0.5;exitDx=0;exitDy=0;" edge="1" parent="wd2FR5dUWBUYe5kDKCp2-76" source="wd2FR5dUWBUYe5kDKCp2-103" target="wd2FR5dUWBUYe5kDKCp2-86">
          <mxGeometry relative="1" as="geometry">
            <Array as="points">
              <mxPoint x="420" y="485" />
              <mxPoint x="420" y="320" />
              <mxPoint x="490" y="320" />
            </Array>
          </mxGeometry>
        </mxCell>
        <mxCell id="wd2FR5dUWBUYe5kDKCp2-114" value="" style="edgeStyle=orthogonalEdgeStyle;rounded=1;orthogonalLoop=1;jettySize=auto;html=1;" edge="1" parent="1" source="wd2FR5dUWBUYe5kDKCp2-115" target="wd2FR5dUWBUYe5kDKCp2-118">
          <mxGeometry relative="1" as="geometry" />
        </mxCell>
        <mxCell id="wd2FR5dUWBUYe5kDKCp2-115" value="PropertiesSource" style="rounded=1;whiteSpace=wrap;html=1;gradientColor=#ea6b66;fillColor=#f8cecc;strokeColor=#b85450;" vertex="1" parent="1">
          <mxGeometry x="-1880" y="220" width="120" height="60" as="geometry" />
        </mxCell>
        <mxCell id="wd2FR5dUWBUYe5kDKCp2-116" value="" style="edgeStyle=orthogonalEdgeStyle;rounded=1;orthogonalLoop=1;jettySize=auto;html=1;" edge="1" parent="1" source="wd2FR5dUWBUYe5kDKCp2-118" target="wd2FR5dUWBUYe5kDKCp2-119">
          <mxGeometry relative="1" as="geometry" />
        </mxCell>
        <mxCell id="wd2FR5dUWBUYe5kDKCp2-117" value="" style="edgeStyle=orthogonalEdgeStyle;rounded=1;orthogonalLoop=1;jettySize=auto;html=1;" edge="1" parent="1" source="wd2FR5dUWBUYe5kDKCp2-118" target="wd2FR5dUWBUYe5kDKCp2-126">
          <mxGeometry relative="1" as="geometry" />
        </mxCell>
        <mxCell id="wd2FR5dUWBUYe5kDKCp2-118" value="Spring Abstraction on&amp;nbsp;&lt;br&gt;Environment Key-Value pair" style="rounded=1;whiteSpace=wrap;html=1;gradientColor=#d5739d;fillColor=#e6d0de;strokeColor=#996185;" vertex="1" parent="1">
          <mxGeometry x="-2200" y="220" width="120" height="60" as="geometry" />
        </mxCell>
        <mxCell id="wd2FR5dUWBUYe5kDKCp2-119" value="JVM Properties" style="whiteSpace=wrap;html=1;rounded=0;" vertex="1" parent="1">
          <mxGeometry x="-2200" y="360" width="120" height="60" as="geometry" />
        </mxCell>
        <mxCell id="wd2FR5dUWBUYe5kDKCp2-120" value="System Environmental Variables" style="whiteSpace=wrap;html=1;rounded=0;" vertex="1" parent="1">
          <mxGeometry x="-2200" y="420" width="120" height="60" as="geometry" />
        </mxCell>
        <mxCell id="wd2FR5dUWBUYe5kDKCp2-121" value="JNDI Properties" style="whiteSpace=wrap;html=1;rounded=0;" vertex="1" parent="1">
          <mxGeometry x="-2200" y="480" width="120" height="60" as="geometry" />
        </mxCell>
        <mxCell id="wd2FR5dUWBUYe5kDKCp2-122" value="Servlet Parameters" style="whiteSpace=wrap;html=1;rounded=0;" vertex="1" parent="1">
          <mxGeometry x="-2200" y="540" width="120" height="60" as="geometry" />
        </mxCell>
        <mxCell id="wd2FR5dUWBUYe5kDKCp2-123" value="Properties File Located&lt;br&gt;on Filesystem" style="whiteSpace=wrap;html=1;rounded=0;" vertex="1" parent="1">
          <mxGeometry x="-2200" y="600" width="120" height="60" as="geometry" />
        </mxCell>
        <mxCell id="wd2FR5dUWBUYe5kDKCp2-124" value="Properties File Located on Classpath" style="whiteSpace=wrap;html=1;rounded=0;" vertex="1" parent="1">
          <mxGeometry x="-2200" y="660" width="120" height="60" as="geometry" />
        </mxCell>
        <mxCell id="wd2FR5dUWBUYe5kDKCp2-125" value="" style="edgeStyle=orthogonalEdgeStyle;rounded=1;orthogonalLoop=1;jettySize=auto;html=1;" edge="1" parent="1" source="wd2FR5dUWBUYe5kDKCp2-126" target="wd2FR5dUWBUYe5kDKCp2-127">
          <mxGeometry relative="1" as="geometry" />
        </mxCell>
        <mxCell id="wd2FR5dUWBUYe5kDKCp2-126" value="Annotaions" style="rounded=1;whiteSpace=wrap;html=1;" vertex="1" parent="1">
          <mxGeometry x="-2200" y="80" width="120" height="60" as="geometry" />
        </mxCell>
        <mxCell id="wd2FR5dUWBUYe5kDKCp2-127" value="@PropertiesSource" style="rounded=0;whiteSpace=wrap;html=1;glass=0;shadow=0;sketch=0;" vertex="1" parent="1">
          <mxGeometry x="-2000" y="80" width="120" height="60" as="geometry" />
        </mxCell>
        <mxCell id="wd2FR5dUWBUYe5kDKCp2-128" value="@Value" style="rounded=0;whiteSpace=wrap;html=1;glass=0;shadow=0;sketch=0;" vertex="1" parent="1">
          <mxGeometry x="-2000" y="140" width="120" height="60" as="geometry" />
        </mxCell>
      </root>
    </mxGraphModel>
  </diagram>
</mxfile>
